<svg width="14" height="20" viewBox="0 0 14 20" fill="none" xmlns="http://www.w3.org/2000/svg">
<path d="M11.0659 0H1.95281C0.874696 0 0 0.835761 0 1.86589V18.0369C0 19.067 0.874696 19.9028 1.95281 19.9028H11.0659C12.144 19.9028 13.0187 19.067 13.0187 18.0369V1.86589C13.0187 0.835761 12.144 0 11.0659 0ZM6.50937 18.6589C5.78927 18.6589 5.2075 18.103 5.2075 17.4149C5.2075 16.7269 5.78927 16.171 6.50937 16.171C7.22947 16.171 7.81124 16.7269 7.81124 17.4149C7.81124 18.103 7.22947 18.6589 6.50937 18.6589ZM11.0659 14.4606C11.0659 14.7172 10.8462 14.9271 10.5777 14.9271H2.44101C2.1725 14.9271 1.95281 14.7172 1.95281 14.4606V2.33236C1.95281 2.0758 2.1725 1.86589 2.44101 1.86589H10.5777C10.8462 1.86589 11.0659 2.0758 11.0659 2.33236V14.4606Z" fill="#7E7E7E"/>
</svg>
